<svg width="14" height="13" viewBox="0 0 14 13" fill="none" xmlns="http://www.w3.org/2000/svg">
<g clip-path="url(#clip0_25_6732)">
<path d="M10.7375 -0.0003782H3.2625C2.53722 -0.00687753 1.839 0.274651 1.32108 0.782416C0.803161 1.29018 0.507862 1.98269 0.5 2.70795L0.5 4.33295C0.5 4.47661 0.557068 4.61439 0.658651 4.71597C0.760233 4.81755 0.898008 4.87462 1.04167 4.87462C1.18533 4.87462 1.3231 4.81755 1.42468 4.71597C1.52627 4.61439 1.58333 4.47661 1.58333 4.33295V2.70795C1.59103 2.26996 1.77214 1.8529 2.08693 1.54827C2.40172 1.24363 2.82449 1.07629 3.2625 1.08296H10.7375C11.1755 1.07629 11.5983 1.24363 11.9131 1.54827C12.2279 1.8529 12.409 2.26996 12.4167 2.70795V10.2913C12.409 10.7293 12.2279 11.1463 11.9131 11.451C11.5983 11.7556 11.1755 11.923 10.7375 11.9163H3.2625C2.82449 11.923 2.40172 11.7556 2.08693 11.451C1.77214 11.1463 1.59103 10.7293 1.58333 10.2913V8.66629C1.58333 8.52263 1.52627 8.38485 1.42468 8.28327C1.3231 8.18169 1.18533 8.12462 1.04167 8.12462C0.898008 8.12462 0.760233 8.18169 0.658651 8.28327C0.557068 8.38485 0.5 8.52263 0.5 8.66629L0.5 10.2913C0.507862 11.0166 0.803161 11.7091 1.32108 12.2168C1.839 12.7246 2.53722 13.0061 3.2625 12.9996H10.7375C11.4628 13.0061 12.161 12.7246 12.6789 12.2168C13.1968 11.7091 13.4921 11.0166 13.5 10.2913V2.70795C13.4921 1.98269 13.1968 1.29018 12.6789 0.782416C12.161 0.274651 11.4628 -0.00687753 10.7375 -0.0003782Z" fill="#FBFBFB"/>
<path d="M2.125 6.49985C2.125 6.64351 2.18207 6.78129 2.28365 6.88287C2.38523 6.98445 2.52301 7.04152 2.66667 7.04152L9.81017 7.02527L7.46854 9.3669C7.41681 9.41686 7.37554 9.47663 7.34715 9.54272C7.31876 9.6088 7.30382 9.67988 7.3032 9.7518C7.30257 9.82373 7.31628 9.89505 7.34351 9.96162C7.37075 10.0282 7.41097 10.0887 7.46183 10.1395C7.51269 10.1904 7.57316 10.2306 7.63973 10.2578C7.7063 10.2851 7.77763 10.2988 7.84955 10.2982C7.92147 10.2975 7.99255 10.2826 8.05864 10.2542C8.12472 10.2258 8.18449 10.1845 8.23446 10.1328L10.7185 7.64873C11.0232 7.344 11.1943 6.93075 11.1943 6.49985C11.1943 6.06896 11.0232 5.65571 10.7185 5.35098L8.23554 2.8669C8.13338 2.76823 7.99656 2.71363 7.85453 2.71486C7.71251 2.7161 7.57665 2.77307 7.47622 2.87349C7.37579 2.97392 7.31883 3.10978 7.31759 3.2518C7.31636 3.39383 7.37096 3.53065 7.46962 3.63281L9.77821 5.94194L2.66667 5.95819C2.52301 5.95819 2.38523 6.01526 2.28365 6.11684C2.18207 6.21842 2.125 6.3562 2.125 6.49985Z" fill="#FBFBFB"/>
</g>
<defs>
<clipPath id="clip0_25_6732">
<rect width="13" height="13" fill="white" transform="translate(0.5)"/>
</clipPath>
</defs>
</svg>
